<?xml version="1.0" standalone="no"?>
<!DOCTYPE svg PUBLIC "-//W3C//DTD SVG 20010904//EN"
 "http://www.w3.org/TR/2001/REC-SVG-20010904/DTD/svg10.dtd">
<svg version="1.0" xmlns="http://www.w3.org/2000/svg"
 width="408.000000pt" height="612.000000pt" viewBox="0 0 408.000000 612.000000"
 preserveAspectRatio="xMidYMid meet">

<g transform="translate(0.000000,612.000000) scale(0.100000,-0.100000)"
fill="#000000" stroke="none">
<path d="M2745 5045 c-16 -9 -36 -22 -44 -29 -8 -9 -28 -12 -55 -10 l-41 5 52
-21 c36 -15 65 -37 97 -74 53 -62 58 -75 19 -49 -39 27 -166 83 -187 83 -26 0
-56 19 -56 35 0 18 -10 18 -120 5 -98 -12 -240 -48 -240 -61 0 -5 -7 -6 -15
-3 -8 4 -15 1 -15 -6 0 -6 -4 -9 -9 -6 -15 10 -75 -38 -98 -79 -23 -41 -83
-244 -83 -281 0 -13 8 -24 20 -27 11 -3 24 -16 29 -29 6 -13 10 -17 10 -7 1 8
-4 20 -10 26 -13 13 30 30 104 39 51 7 52 6 35 -12 -16 -19 -16 -20 5 -34 21
-13 19 -14 -38 -32 -33 -10 -68 -18 -77 -18 -20 0 -42 -35 -34 -55 8 -22 108
-63 187 -77 72 -14 74 -15 86 -50 22 -67 43 -187 43 -247 0 -97 19 -150 62
-179 43 -28 43 -28 20 -97 -19 -56 -45 -75 -104 -75 -21 0 -55 -7 -75 -15 -49
-18 -136 -33 -248 -40 -95 -7 -251 -45 -292 -72 -39 -26 -105 -119 -177 -252
-37 -68 -84 -148 -103 -179 -66 -103 -131 -252 -142 -329 -6 -39 -23 -98 -37
-131 -23 -53 -30 -61 -59 -66 -47 -9 -59 -27 -51 -80 6 -37 4 -44 -12 -48 -29
-8 -72 -71 -98 -144 -30 -80 -32 -171 -5 -229 19 -42 72 -95 96 -95 7 0 56
-13 110 -30 115 -35 147 -37 200 -9 26 13 64 21 108 23 64 3 69 2 84 -23 9
-14 25 -35 34 -46 12 -14 26 -71 43 -185 14 -91 30 -185 35 -210 5 -25 6 -46
1 -48 -5 -2 -4 -15 1 -30 31 -78 29 -137 -4 -168 -23 -21 -27 -33 -27 -83 0
-58 -17 -168 -28 -186 -11 -16 -31 -116 -31 -156 -1 -20 -7 -54 -14 -75 -8
-22 -15 -61 -16 -89 -3 -61 -7 -67 -34 -60 -21 6 -20 5 3 -13 21 -18 23 -23
12 -47 -7 -14 -10 -31 -7 -36 4 -5 -1 -9 -9 -9 -8 0 -18 4 -21 10 -20 33 -21
14 -6 -487 l1 -43 800 0 800 0 -5 37 c-3 21 -10 130 -14 243 -6 140 -14 218
-24 246 -8 23 -17 86 -20 140 -5 90 -3 102 20 149 14 27 31 57 39 65 20 23 44
96 53 166 7 49 5 75 -10 128 -19 70 -27 151 -16 162 11 12 92 -41 95 -62 2
-12 14 -26 28 -32 13 -7 24 -18 24 -25 0 -20 41 -53 74 -61 16 -4 63 0 109 10
62 14 92 27 138 60 32 24 62 51 68 61 6 12 6 47 -1 102 -9 72 -9 87 6 111 19
33 20 57 2 88 -10 20 -10 33 0 74 10 38 11 60 3 92 -6 22 -12 77 -13 121 -1
44 -10 123 -21 175 -16 83 -18 138 -15 435 3 400 -18 683 -55 755 -29 56 -136
132 -291 206 l-114 54 -1 43 c-1 25 -3 32 -6 17 -8 -51 -11 -52 -50 -25 -21
14 -49 25 -64 25 -65 0 -124 151 -70 180 54 28 79 66 106 155 15 50 33 93 39
97 16 11 24 -62 25 -229 1 -79 5 -144 11 -148 6 -4 7 66 3 192 l-6 198 41 28
c23 15 42 34 42 41 0 8 10 23 23 33 46 37 84 169 73 256 -6 55 -20 77 -47 77
-13 0 -22 15 -34 55 -14 49 -14 57 -1 70 8 8 29 15 46 15 18 0 29 4 25 10 -3
6 0 13 9 16 27 10 26 33 -2 48 -15 9 -21 15 -14 16 20 0 14 48 -7 55 -11 3
-26 16 -34 29 -32 48 -120 128 -143 130 -13 0 -24 4 -24 8 0 12 -61 78 -73 78
-6 0 -18 6 -26 14 -74 64 -213 95 -276 61z m296 -102 c12 -31 11 -33 -4 -33
-11 0 -57 51 -57 63 0 2 12 2 26 -1 15 -3 29 -14 35 -29z m-753 -149 c4 -31
-20 -45 -89 -51 -60 -6 -61 -6 -57 18 7 51 139 81 146 33z m577 -146 c0 -59
-30 -138 -52 -138 -17 0 -17 31 1 72 8 18 18 55 21 81 9 67 30 56 30 -15z
m-293 -75 c32 -9 63 -22 69 -29 15 -18 4 -61 -19 -73 -18 -9 -125 11 -172 33
-32 15 -40 64 -14 83 20 14 39 12 136 -14z m-731 -1720 c1 -51 3 -54 9 -23 6
33 7 34 13 10 3 -14 8 -43 10 -66 2 -22 9 -49 16 -60 10 -16 11 -13 6 21 -6
43 4 68 21 57 16 -11 33 -120 30 -199 -2 -40 1 -73 5 -73 17 0 21 -49 5 -71
-14 -21 -16 -21 -22 -4 -7 17 -8 16 -16 -4 -7 -20 -10 -21 -23 -7 -8 8 -15 19
-15 24 0 24 -27 16 -52 -15 -15 -20 -29 -29 -33 -23 -3 6 -10 8 -15 5 -19 -11
-20 33 -5 185 3 30 8 109 12 175 3 66 9 111 13 100 7 -19 7 -19 14 3 13 40 26
23 27 -35z m66 -35 c-3 -8 -6 -5 -6 6 -1 11 2 17 5 13 3 -3 4 -12 1 -19z
m-221 -184 c4 -14 3 -58 -1 -98 -4 -39 -10 -103 -14 -143 -3 -39 -9 -75 -13
-78 -7 -7 -78 13 -78 22 0 3 11 26 24 52 51 98 59 127 52 191 -4 33 -4 65 -1
70 11 18 24 11 31 -16z m-162 -470 c9 -20 15 -39 12 -41 -2 -2 -7 5 -11 17 -5
17 -12 20 -40 14 -42 -8 -54 10 -18 29 39 21 37 21 57 -19z m1706 -180 c25
-58 25 -80 0 -126 -16 -30 -18 -42 -9 -68 13 -36 6 -48 -16 -30 -12 10 -15 35
-15 110 0 88 7 160 16 160 2 0 12 -21 24 -46z m-1481 -359 c6 -55 13 -111 16
-125 5 -24 5 -24 -4 -2 -14 30 -38 180 -45 272 l-5 75 14 -60 c8 -33 19 -105
24 -160z m1491 18 c0 -39 -4 -63 -11 -63 -7 0 -8 -14 -4 -41 5 -29 3 -45 -8
-57 -8 -9 -18 -28 -22 -42 -8 -25 -8 -24 -20 10 -8 24 -9 46 -3 68 5 19 6 41
2 50 -7 17 -7 30 1 70 6 24 30 30 39 10 4 -7 4 11 1 41 -4 49 -3 52 10 35 9
-12 14 -43 15 -81z m-1460 -355 c21 -46 41 -96 45 -113 l7 -30 -21 30 c-11 16
-23 43 -27 60 -4 16 -15 42 -26 58 -11 15 -17 27 -14 27 3 0 1 11 -4 25 -5 14
-7 25 -4 25 3 0 23 -37 44 -82z"/>
<path d="M1586 1064 c-9 -25 -7 -64 4 -64 6 0 10 18 10 40 0 43 -4 50 -14 24z"/>
</g>
</svg>
